<?xml version="1.0" encoding="utf-8"?>
<!-- Generator: Adobe Illustrator 16.0.0, SVG Export Plug-In . SVG Version: 6.00 Build 0)  -->
<!DOCTYPE svg PUBLIC "-//W3C//DTD SVG 1.1//EN" "http://www.w3.org/Graphics/SVG/1.1/DTD/svg11.dtd">
<svg version="1.1" id="Layer_1" xmlns="http://www.w3.org/2000/svg" xmlns:xlink="http://www.w3.org/1999/xlink" x="0px" y="0px"
	 width="612px" height="792px" viewBox="0 0 612 792" enable-background="new 0 0 612 792" xml:space="preserve">
<path fill="#8058A4" d="M500.729,196.088c5.318-30.823,13.123-50.204,21.767-50.241h0.017c16.119,0.055,29.185,67.272,29.185,150.26
	c0,82.989-13.084,150.26-29.22,150.26c-6.616,0-12.721-11.422-17.635-30.563c-7.767,70.068-23.884,118.234-42.542,118.234
	c-14.437,0-27.393-28.934-36.091-74.564c-5.938,86.782-20.886,148.354-38.356,148.354c-10.965,0-20.96-24.398-28.361-64.126
	c-8.898,82.007-29.458,139.468-53.433,139.468s-44.571-57.442-53.433-139.468c-7.347,39.728-17.342,64.126-28.361,64.126
	c-17.471,0-32.382-61.571-38.357-148.354c-8.699,45.631-21.619,74.564-36.092,74.564c-18.639,0-34.775-48.148-42.541-118.234
	c-4.879,19.195-11.019,30.563-17.634,30.563c-16.136,0-29.22-67.271-29.22-150.26c0-82.988,13.084-150.26,29.22-150.26
	c8.662,0,16.41,19.437,21.782,50.241c8.607-53.148,22.587-87.691,38.393-87.691c18.768,0,35.032,48.853,42.725,119.79
	c7.529-51.63,18.95-84.544,31.742-84.544c17.926,0,33.166,64.736,38.813,155.037c10.617-46.298,25.986-75.343,43-75.343
	c17.012,0,32.382,29.064,42.979,75.343c5.665-90.301,20.886-155.037,38.814-155.037c12.771,0,24.176,32.914,31.741,84.544
	c7.676-70.937,23.939-119.79,42.706-119.79C478.09,108.397,492.122,142.959,500.729,196.088 M18.667,281.328
	c0-37.098,7.419-67.179,16.575-67.179c9.155,0,16.574,30.081,16.574,67.179c0,37.097-7.419,67.18-16.574,67.18
	C26.086,348.508,18.667,318.425,18.667,281.328 M560.289,281.328c0-37.098,7.419-67.179,16.574-67.179
	c9.154,0,16.574,30.081,16.574,67.179c0,37.097-7.42,67.18-16.574,67.18C567.708,348.508,560.289,318.425,560.289,281.328"/>
</svg>
